<svg width="128" height="128" viewBox="0 0 128 128" fill="none" xmlns="http://www.w3.org/2000/svg">
<rect width="128" height="128" rx="42" fill="white"/>
<path d="M80.257 107.843C79.6793 108.081 79.0286 107.793 78.7825 107.219V107.219C78.5512 106.679 78.7516 106.054 79.2388 105.726C81.9861 103.877 84.0798 101.681 85.52 99.14C86.481 97.5917 87.2741 95.8142 87.8992 93.8077C88.7761 90.9927 87.1143 88.1115 84.4 86.96V86.96C81.6933 85.6533 79.5933 83.9733 78.1 81.92C76.7 79.7733 76 77.6267 76 75.48C76 72.2133 77.0733 69.5067 79.22 67.36C81.3667 65.12 84.1667 64 87.62 64C91.1667 64 94.0133 65.26 96.16 67.78C98.4 70.2067 99.52 73.7533 99.52 78.42C99.52 83.5533 98.4467 88.1267 96.3 92.14C94.2467 96.2467 91.68 99.6533 88.6 102.36C85.856 104.855 83.0751 106.682 80.257 107.843Z" fill="#EB3800"/>
</svg>
