<svg width="111" height="27" viewBox="0 0 111 27" fill="none" xmlns="http://www.w3.org/2000/svg">
<path d="M104.248 6.112C105.462 6.112 106.498 6.364 107.356 6.868C108.215 7.35333 108.868 8.02533 109.316 8.884C109.783 9.724 110.016 10.6853 110.016 11.768C110.016 11.9733 110.007 12.188 109.988 12.412C109.97 12.6173 109.932 12.804 109.876 12.972H101.532C101.551 14.988 101.906 16.444 102.596 17.34C103.306 18.2173 104.351 18.656 105.732 18.656C106.666 18.656 107.422 18.5067 108 18.208C108.579 17.9093 109.12 17.4707 109.624 16.892L109.904 17.144C109.326 18.1707 108.551 18.9733 107.58 19.552C106.628 20.1307 105.48 20.42 104.136 20.42C102.811 20.42 101.635 20.14 100.608 19.58C99.5816 19.0013 98.7789 18.18 98.2003 17.116C97.6216 16.052 97.3323 14.7827 97.3323 13.308C97.3323 11.7773 97.6683 10.48 98.3403 9.416C99.0123 8.33333 99.8709 7.512 100.916 6.952C101.98 6.392 103.091 6.112 104.248 6.112ZM104.164 6.672C103.623 6.672 103.156 6.84 102.764 7.176C102.391 7.49333 102.092 8.072 101.868 8.912C101.663 9.73333 101.551 10.9 101.532 12.412H106.32C106.507 10.3773 106.432 8.912 106.096 8.016C105.76 7.12 105.116 6.672 104.164 6.672Z" fill="#2A2A2C"/>
<path d="M81.5264 20V19.72L81.9464 19.58C82.581 19.3747 82.8984 18.9173 82.8984 18.208V3.228C82.8984 2.85466 82.8237 2.57467 82.6744 2.388C82.525 2.20133 82.2637 2.052 81.8904 1.94L81.5264 1.856V1.576L86.6504 0.371998L86.9864 0.623998L86.9024 4.544V18.208C86.9024 18.9547 87.2104 19.4213 87.8264 19.608L88.2184 19.72V20H81.5264ZM91.9144 20L86.9304 13L92.1104 8.212C92.353 7.988 92.493 7.75466 92.5304 7.512C92.5864 7.25066 92.4277 7.064 92.0544 6.952L91.5784 6.812V6.532H95.7504V6.812L94.9104 7.036C94.4997 7.16667 94.1637 7.32533 93.9024 7.512C93.6597 7.68 93.361 7.92267 93.0064 8.24L89.8704 11.18L94.8824 18.152C95.181 18.5627 95.461 18.88 95.7224 19.104C95.9837 19.328 96.3197 19.5147 96.7304 19.664L96.8424 19.72V20H91.9144Z" fill="#2A2A2C"/>
<path d="M73.4058 20.42C71.9872 20.42 70.7552 20.1307 69.7098 19.552C68.6645 18.9547 67.8525 18.1147 67.2738 17.032C66.7138 15.9493 66.4338 14.68 66.4338 13.224C66.4338 11.768 66.7325 10.508 67.3298 9.444C67.9458 8.38 68.7765 7.55867 69.8218 6.98C70.8858 6.40133 72.0805 6.112 73.4058 6.112C74.7312 6.112 75.9165 6.40133 76.9618 6.98C78.0072 7.54 78.8285 8.352 79.4258 9.416C80.0418 10.48 80.3498 11.7493 80.3498 13.224C80.3498 14.6987 80.0605 15.9773 79.4818 17.06C78.9218 18.124 78.1192 18.9547 77.0738 19.552C76.0472 20.1307 74.8245 20.42 73.4058 20.42ZM73.4058 19.86C74.0592 19.86 74.5818 19.6733 74.9738 19.3C75.3658 18.9267 75.6458 18.264 75.8138 17.312C76.0005 16.36 76.0938 15.016 76.0938 13.28C76.0938 11.5253 76.0005 10.172 75.8138 9.22C75.6458 8.268 75.3658 7.60533 74.9738 7.232C74.5818 6.85867 74.0592 6.672 73.4058 6.672C72.7525 6.672 72.2205 6.85867 71.8098 7.232C71.4178 7.60533 71.1285 8.268 70.9418 9.22C70.7738 10.172 70.6898 11.5253 70.6898 13.28C70.6898 15.016 70.7738 16.36 70.9418 17.312C71.1285 18.264 71.4178 18.9267 71.8098 19.3C72.2205 19.6733 72.7525 19.86 73.4058 19.86Z" fill="#2A2A2C"/>
<path d="M49.9702 26.44V26.16L50.3062 26.048C50.9969 25.8613 51.3422 25.4133 51.3422 24.704V9.472C51.3422 9.06133 51.2675 8.75333 51.1182 8.548C50.9875 8.34267 50.7355 8.20267 50.3622 8.128L49.9702 8.044V7.764L54.7302 6.14L55.0102 6.42L55.2622 7.288C55.8782 6.91467 56.5595 6.62533 57.3062 6.42C58.0715 6.21467 58.8555 6.112 59.6582 6.112C61.2635 6.112 62.5329 6.728 63.4662 7.96C64.4182 9.17333 64.8942 10.9187 64.8942 13.196C64.8942 15.436 64.3715 17.2 63.3262 18.488C62.2995 19.776 60.8435 20.42 58.9582 20.42C57.4835 20.42 56.2422 20.2053 55.2342 19.776V24.62C55.2342 25.3667 55.5702 25.8333 56.2422 26.02L56.7742 26.16V26.44H49.9702ZM57.6142 19.608C58.5475 19.608 59.2849 19.1227 59.8262 18.152C60.3862 17.1813 60.6662 15.5667 60.6662 13.308C60.6662 11.0493 60.4049 9.472 59.8822 8.576C59.3595 7.66133 58.6035 7.204 57.6142 7.204C56.9235 7.204 56.1582 7.428 55.3182 7.876V19.16C56.0275 19.4587 56.7929 19.608 57.6142 19.608Z" fill="#2A2A2C"/>
<path d="M45.337 20.42C44.1423 20.42 43.209 20.1213 42.537 19.524C41.8837 18.9267 41.557 17.9747 41.557 16.668V7.092H39.625V6.812L40.297 6.7C40.8757 6.56933 41.3703 6.38267 41.781 6.14C42.2103 5.89733 42.6303 5.57067 43.041 5.16L45.337 2.612H45.617L45.533 6.532H48.669V7.092H45.505V17.172C45.505 17.8253 45.645 18.32 45.925 18.656C46.2237 18.992 46.597 19.16 47.045 19.16C47.437 19.16 47.7823 19.0667 48.081 18.88C48.3797 18.6747 48.6783 18.404 48.977 18.068L49.257 18.348C48.8837 18.9827 48.3703 19.4867 47.717 19.86C47.0637 20.2333 46.2703 20.42 45.337 20.42Z" fill="#2A2A2C"/>
<path d="M30.4755 20V19.72L30.8395 19.636C31.1942 19.5427 31.4742 19.384 31.6795 19.16C31.8848 18.9173 31.9875 18.6093 31.9875 18.236C31.9875 17.5453 31.9875 16.864 31.9875 16.192C32.0062 15.5013 32.0155 14.8107 32.0155 14.12V7.092H30.4475V6.784L31.0635 6.672C31.4368 6.63467 31.7075 6.504 31.8755 6.28C32.0435 6.056 32.1648 5.748 32.2395 5.356C32.4262 4.628 32.6968 3.99333 33.0515 3.452C33.4248 2.892 33.8448 2.37866 34.3115 1.912C35.0208 1.24 35.7675 0.773332 36.5515 0.511999C37.3542 0.231999 38.1382 0.0919991 38.9035 0.0919991C39.6502 0.0919991 40.3315 0.250666 40.9475 0.568C41.5635 0.866666 41.8715 1.37067 41.8715 2.08C41.8715 2.584 41.7222 2.98533 41.4235 3.284C41.1248 3.564 40.7048 3.704 40.1635 3.704C39.7155 3.704 39.3048 3.58267 38.9315 3.34C38.5582 3.09733 38.1942 2.668 37.8395 2.052L37.4475 1.576C37.2422 1.31466 37.0368 1.19333 36.8315 1.212C36.6262 1.212 36.4768 1.36133 36.3835 1.66C36.2528 2.31333 36.1502 3.07867 36.0755 3.956C36.0195 4.83333 35.9915 5.692 35.9915 6.532H39.1275V7.092H35.9915V18.18C35.9915 18.8893 36.3648 19.3467 37.1115 19.552L37.8115 19.72V20H30.4755Z" fill="#2A2A2C"/>
<path d="M22.2457 20.42C20.827 20.42 19.595 20.1307 18.5497 19.552C17.5043 18.9547 16.6923 18.1147 16.1137 17.032C15.5537 15.9493 15.2737 14.68 15.2737 13.224C15.2737 11.768 15.5723 10.508 16.1697 9.444C16.7857 8.38 17.6163 7.55867 18.6617 6.98C19.7257 6.40133 20.9203 6.112 22.2457 6.112C23.571 6.112 24.7563 6.40133 25.8017 6.98C26.847 7.54 27.6684 8.352 28.2657 9.416C28.8817 10.48 29.1897 11.7493 29.1897 13.224C29.1897 14.6987 28.9003 15.9773 28.3217 17.06C27.7617 18.124 26.959 18.9547 25.9137 19.552C24.887 20.1307 23.6643 20.42 22.2457 20.42ZM22.2457 19.86C22.899 19.86 23.4217 19.6733 23.8137 19.3C24.2057 18.9267 24.4857 18.264 24.6537 17.312C24.8403 16.36 24.9337 15.016 24.9337 13.28C24.9337 11.5253 24.8403 10.172 24.6537 9.22C24.4857 8.268 24.2057 7.60533 23.8137 7.232C23.4217 6.85867 22.899 6.672 22.2457 6.672C21.5923 6.672 21.0603 6.85867 20.6497 7.232C20.2577 7.60533 19.9683 8.268 19.7817 9.22C19.6137 10.172 19.5297 11.5253 19.5297 13.28C19.5297 15.016 19.6137 16.36 19.7817 17.312C19.9683 18.264 20.2577 18.9267 20.6497 19.3C21.0603 19.6733 21.5923 19.86 22.2457 19.86Z" fill="#2A2A2C"/>
<path d="M6.63609 20.504C5.60942 20.504 4.56409 20.3733 3.50009 20.112C2.43609 19.8693 1.54942 19.5427 0.840088 19.132L0.980088 15.324H1.26009L2.12809 17.144C2.38942 17.6667 2.66942 18.1333 2.96809 18.544C3.26675 18.936 3.67742 19.244 4.20009 19.468C4.57342 19.6547 4.92809 19.7853 5.26409 19.86C5.61875 19.916 6.01075 19.944 6.44009 19.944C7.57875 19.944 8.47475 19.636 9.12809 19.02C9.80009 18.404 10.1361 17.6107 10.1361 16.64C10.1361 15.7253 9.91209 15.016 9.46409 14.512C9.01609 13.9893 8.29742 13.4853 7.30809 13L6.16009 12.496C4.55475 11.7867 3.29475 10.9747 2.38009 10.06C1.48409 9.12667 1.03609 7.89467 1.03609 6.364C1.03609 5.26267 1.31609 4.31067 1.87609 3.508C2.45475 2.70533 3.24809 2.08933 4.25609 1.66C5.28275 1.23067 6.47742 1.016 7.84009 1.016C8.82942 1.016 9.76275 1.14667 10.6401 1.408C11.5361 1.66933 12.3108 2.024 12.9641 2.472L12.7961 5.832H12.5161L11.3681 3.732C11.0508 3.07867 10.7334 2.62133 10.4161 2.36C10.0988 2.08 9.73475 1.884 9.32409 1.772C9.08142 1.69733 8.85742 1.65067 8.65209 1.632C8.44675 1.59467 8.18542 1.576 7.86809 1.576C6.91609 1.576 6.11342 1.856 5.46009 2.416C4.80675 2.95733 4.48009 3.69467 4.48009 4.628C4.48009 5.58 4.73209 6.34533 5.23609 6.924C5.74009 7.484 6.47742 7.988 7.44809 8.436L8.73609 8.996C10.5281 9.78 11.8161 10.62 12.6001 11.516C13.3841 12.3933 13.7761 13.532 13.7761 14.932C13.7761 16.5747 13.1508 17.9187 11.9001 18.964C10.6681 19.9907 8.91342 20.504 6.63609 20.504Z" fill="#2A2A2C"/>
</svg>
