<svg width="18" height="33" viewBox="0 0 18 33" fill="none" xmlns="http://www.w3.org/2000/svg">
<path d="M2.46429 33L1.82143 31.538C4.25 30.076 6.07143 28.3006 7.28571 26.212C8.57143 24.193 9.46429 21.6519 9.96429 18.5886L6.42857 17.1266C4.35714 16.1519 2.75 14.8987 1.60714 13.3671C0.535715 11.7658 0 10.1646 0 8.56329C0 6.12659 0.821429 4.10759 2.46429 2.50633C4.10714 0.835443 6.25 0 8.89286 0C11.6071 0 13.7857 0.939873 15.4286 2.81962C17.1429 4.62975 18 7.27532 18 10.7563C18 14.5854 17.1786 17.9968 15.5357 20.9905C13.9643 24.0538 12 26.5949 9.64286 28.6139C7.28571 30.7025 4.89286 32.1646 2.46429 33Z" fill="#EB3800"/>
</svg>
