<svg enable-background="new 0 0 101.9 24" viewBox="0 0 101.9 24" xmlns="http://www.w3.org/2000/svg"><g fill="#2a2a2c"><path d="m94.6 5.6c1.1 0 2 .3 2.8.7s1.3 1.1 1.8 1.8.6 1.6.6 2.6v.5c0 .2-.1.4-.1.5h-7.4c0 1.8.4 3.1 1 3.9s1.6 1.2 2.8 1.2c.8 0 1.5-.1 2.1-.4.5-.3 1-.6 1.4-1.2l.3.3c-.5.9-1.3 1.6-2.1 2.1-.9.5-1.9.8-3 .8s-2.2-.3-3.1-.7c-.9-.5-1.6-1.3-2.1-2.2s-.8-2.1-.8-3.4.3-2.5.9-3.5 1.3-1.7 2.3-2.2c.6-.6 1.6-.8 2.6-.8zm0 .5c-.4 0-.9.2-1.3.4-.4.3-.6.8-.8 1.5s-.3 1.8-.3 3.1h4.3c.2-1.8.1-3.1-.2-3.9s-.9-1.1-1.7-1.1z"/><path d="m74.3 18v-.2l.4-.1c.5-.2.9-.6.9-1.3v-13.3c0-.4-.1-.6-.2-.7-.1-.2-.4-.3-.7-.4l-.4-.1v-.4l4.6-1.1.4.3-.1 3.5v12.2c0 .6.3 1.1.8 1.3l.4.1v.3zm9.3 0-4.5-6.3 4.6-4.3c.3-.1.4-.4.4-.6.1-.3-.1-.4-.4-.5l-.4-.1v-.2h3.8v.2l-.7.2c-.4.1-.6.3-.9.4-.2.2-.5.4-.8.6l-2.8 2.6 4.5 6.3c.3.4.5.6.7.9.3.2.5.4.9.5l.1.1v.3z"/><path d="m67.1 18.4c-1.3 0-2.4-.3-3.3-.8s-1.7-1.3-2.1-2.2c-.5-1-.7-2.1-.7-3.4s.3-2.4.8-3.4 1.3-1.7 2.2-2.2 2.1-.8 3.2-.8 2.2.3 3.2.8c.9.5 1.7 1.3 2.2 2.1.5 1 .8 2.1.8 3.4s-.3 2.5-.8 3.4c-.5 1-1.3 1.7-2.1 2.2-1.1.7-2.2.9-3.4.9zm0-.5c.6 0 1.1-.2 1.4-.5.4-.4.6-.9.7-1.8.2-.9.3-2.1.3-3.6 0-1.6-.1-2.8-.3-3.7s-.4-1.4-.7-1.8c-.4-.3-.8-.5-1.4-.5s-1.1.2-1.5.5c-.4.4-.6.9-.8 1.8s-.3 2.1-.3 3.7c0 1.5.1 2.8.3 3.6.2.9.4 1.4.8 1.8.4.3.9.5 1.5.5z"/><path d="m46.1 23.8v-.3l.3-.1c.6-.2.9-.5.9-1.2v-13.6c0-.4-.1-.6-.2-.8s-.4-.3-.7-.4l-.3-.1v-.2l4.3-1.4.2.3.3.8c.5-.4 1.2-.6 1.8-.8.7-.2 1.3-.3 2.1-.3 1.4 0 2.6.5 3.4 1.6.9 1.1 1.3 2.7 1.3 4.6s-.5 3.6-1.5 4.7c-.9 1.2-2.2 1.7-3.9 1.7-1.3 0-2.4-.2-3.3-.5v4.3c0 .6.3 1.1.9 1.3l.4.1v.3zm6.8-6.2c.8 0 1.5-.4 2-1.3s.7-2.3.7-4.3-.3-3.4-.7-4.2-1.2-1.3-2.1-1.3c-.6 0-1.3.2-2.1.6v10.1c.8.3 1.5.4 2.2.4z"/><path d="m41.9 18.4c-1.1 0-1.9-.3-2.5-.8s-.9-1.3-.9-2.6v-8.5h-1.7v-.3l.6-.1c.5-.1 1-.3 1.3-.5.5-.2.8-.6 1.3-.9l2-2.3h.3l-.1 3.5h2.8v.5h-2.9v9c0 .6.1 1 .4 1.3s.6.4 1 .4.6-.1.9-.3.5-.4.8-.7l.3.3c-.4.5-.8 1-1.3 1.3-.7.6-1.4.7-2.3.7z"/><path d="m28.7 18v-.2l.4-.1c.4-.1.5-.3.7-.4.2-.2.3-.5.3-.8 0-.6 0-1.3 0-1.8 0-.6 0-1.3 0-1.9v-6.3h-1.4v-.3l.5-.1c.4 0 .5-.2.7-.4s.3-.4.4-.8c.2-.6.4-1.3.7-1.7.4-.5.7-1 1.2-1.3.6-.6 1.3-1.1 2.1-1.3.7-.3 1.4-.4 2.1-.4.6 0 1.3.2 1.8.4s.8.7.8 1.3c0 .4-.1.8-.4 1.1s-.6.4-1.2.4c-.4 0-.8-.1-1.1-.4s-.6-.6-1-1.2l-.3-.3c-.2-.3-.4-.4-.5-.4-.2 0-.4.1-.4.4-.1.6-.2 1.3-.3 2.1-.2 1-.2 1.7-.2 2.5h2.8v.5h-2.8v9.9c0 .6.4 1.1 1 1.3l.6.2v.3h-6.5z"/><path d="m21.3 18.4c-1.3 0-2.4-.3-3.3-.8s-1.7-1.3-2.1-2.2c-.5-1-.7-2.1-.7-3.4s.3-2.4.8-3.4 1.3-1.7 2.2-2.2 2.1-.8 3.2-.8c1.2 0 2.2.3 3.2.8.9.5 1.7 1.3 2.2 2.1.5 1 .8 2.1.8 3.4s-.3 2.5-.8 3.4c-.5 1-1.3 1.7-2.1 2.2-1 .7-2.1.9-3.4.9zm0-.5c.6 0 1.1-.2 1.4-.5.4-.4.6-.9.7-1.8.2-.9.3-2.1.3-3.6 0-1.6-.1-2.8-.3-3.7s-.4-1.4-.7-1.8c-.3-.3-.8-.5-1.4-.5s-1.1.2-1.4.5c-.4.4-.6.9-.8 1.8s-.3 2.1-.3 3.7c0 1.5.1 2.8.3 3.6.2.9.4 1.4.8 1.8.4.3.9.5 1.4.5z"/><path d="m7.3 18.4c-.9 0-1.9-.1-2.8-.4-1-.2-1.8-.5-2.4-.9l.2-3.3h.3l.8 1.6c.3.4.4.9.7 1.3s.6.6 1.1.8c.4.2.6.3 1 .4.3.1.6.1 1.1.1 1 0 1.8-.3 2.4-.8s.9-1.3.9-2.1-.2-1.4-.6-1.9c-.4-.4-1.1-.9-2-1.3l-1-.4c-1.4-.8-2.6-1.5-3.4-2.3-.8-.9-1.3-2-1.3-3.4 0-1 .3-1.9.7-2.6.6-.7 1.3-1.2 2.2-1.6s2-.5 3.2-.5c.9 0 1.7.1 2.5.4s1.5.5 2.1 1l-.2 3h-.3l-.9-2c-.3-.6-.5-1-.9-1.3-.3-.3-.6-.4-1-.5-.1-.1-.3-.1-.5-.1s-.4-.1-.7-.1c-.9 0-1.6.3-2.1.7-.6.4-.9 1.2-.9 2 0 .9.3 1.5.7 2.1s1.1 1 2 1.3l1.2.5c1.6.7 2.8 1.4 3.5 2.2s1.1 1.8 1.1 3c0 1.4-.5 2.7-1.7 3.6-1.3 1.1-2.9 1.5-5 1.5z"/></g></svg>