<?xml version="1.0" encoding="utf-8"?>
<!-- Generator: Adobe Illustrator 27.6.1, SVG Export Plug-In . SVG Version: 6.00 Build 0)  -->
<svg version="1.1" id="Layer_1" xmlns="http://www.w3.org/2000/svg" xmlns:xlink="http://www.w3.org/1999/xlink" x="0px" y="0px"
	 viewBox="0 0 101.9 24" style="enable-background:new 0 0 101.9 24;" xml:space="preserve">
<style type="text/css">
	.st0{fill:#FFFFFF;}
</style>
<g>
	<path class="st0" d="M94.6,5.6c1.1,0,2,0.3,2.8,0.7s1.3,1.1,1.8,1.8s0.6,1.6,0.6,2.6v0.5c0,0.2-0.1,0.4-0.1,0.5h-7.4
		c0,1.8,0.4,3.1,1,3.9s1.6,1.2,2.8,1.2c0.8,0,1.5-0.1,2.1-0.4c0.5-0.3,1-0.6,1.4-1.2l0.3,0.3c-0.5,0.9-1.3,1.6-2.1,2.1
		c-0.9,0.5-1.9,0.8-3,0.8s-2.2-0.3-3.1-0.7c-0.9-0.5-1.6-1.3-2.1-2.2s-0.8-2.1-0.8-3.4s0.3-2.5,0.9-3.5S91,6.9,92,6.4
		C92.6,5.8,93.6,5.6,94.6,5.6L94.6,5.6z M94.6,6.1c-0.4,0-0.9,0.2-1.3,0.4c-0.4,0.3-0.6,0.8-0.8,1.5s-0.3,1.8-0.3,3.1h4.3
		c0.2-1.8,0.1-3.1-0.2-3.9S95.4,6.1,94.6,6.1z"/>
	<path class="st0" d="M74.3,18v-0.2l0.4-0.1c0.5-0.2,0.9-0.6,0.9-1.3V3.1c0-0.4-0.1-0.6-0.2-0.7C75.3,2.2,75,2.1,74.7,2l-0.4-0.1
		V1.5l4.6-1.1l0.4,0.3l-0.1,3.5v12.2c0,0.6,0.3,1.1,0.8,1.3l0.4,0.1v0.3L74.3,18z M83.6,18l-4.5-6.3l4.6-4.3C84,7.3,84.1,7,84.1,6.8
		c0.1-0.3-0.1-0.4-0.4-0.5l-0.4-0.1V6h3.8v0.2l-0.7,0.2c-0.4,0.1-0.6,0.3-0.9,0.4C85.3,7,85,7.2,84.7,7.4L81.9,10l4.5,6.3
		c0.3,0.4,0.5,0.6,0.7,0.9c0.3,0.2,0.5,0.4,0.9,0.5l0.1,0.1v0.3L83.6,18z"/>
	<path class="st0" d="M67.1,18.4c-1.3,0-2.4-0.3-3.3-0.8s-1.7-1.3-2.1-2.2c-0.5-1-0.7-2.1-0.7-3.4s0.3-2.4,0.8-3.4s1.3-1.7,2.2-2.2
		s2.1-0.8,3.2-0.8s2.2,0.3,3.2,0.8c0.9,0.5,1.7,1.3,2.2,2.1c0.5,1,0.8,2.1,0.8,3.4s-0.3,2.5-0.8,3.4c-0.5,1-1.3,1.7-2.1,2.2
		C69.4,18.2,68.3,18.4,67.1,18.4z M67.1,17.9c0.6,0,1.1-0.2,1.4-0.5c0.4-0.4,0.6-0.9,0.7-1.8c0.2-0.9,0.3-2.1,0.3-3.6
		c0-1.6-0.1-2.8-0.3-3.7s-0.4-1.4-0.7-1.8C68.1,6.2,67.7,6,67.1,6S66,6.2,65.6,6.5c-0.4,0.4-0.6,0.9-0.8,1.8s-0.3,2.1-0.3,3.7
		c0,1.5,0.1,2.8,0.3,3.6c0.2,0.9,0.4,1.4,0.8,1.8C66,17.7,66.5,17.9,67.1,17.9z"/>
	<path class="st0" d="M46.1,23.8v-0.3l0.3-0.1c0.6-0.2,0.9-0.5,0.9-1.2V8.6c0-0.4-0.1-0.6-0.2-0.8s-0.4-0.3-0.7-0.4l-0.3-0.1V7.1
		l4.3-1.4L50.6,6l0.3,0.8c0.5-0.4,1.2-0.6,1.8-0.8c0.7-0.2,1.3-0.3,2.1-0.3c1.4,0,2.6,0.5,3.4,1.6c0.9,1.1,1.3,2.7,1.3,4.6
		S59,15.5,58,16.6c-0.9,1.2-2.2,1.7-3.9,1.7c-1.3,0-2.4-0.2-3.3-0.5v4.3c0,0.6,0.3,1.1,0.9,1.3l0.4,0.1v0.3L46.1,23.8z M52.9,17.6
		c0.8,0,1.5-0.4,2-1.3s0.7-2.3,0.7-4.3s-0.3-3.4-0.7-4.2s-1.2-1.3-2.1-1.3c-0.6,0-1.3,0.2-2.1,0.6v10.1
		C51.5,17.5,52.2,17.6,52.9,17.6z"/>
	<path class="st0" d="M41.9,18.4c-1.1,0-1.9-0.3-2.5-0.8s-0.9-1.3-0.9-2.6V6.5h-1.7V6.2l0.6-0.1c0.5-0.1,1-0.3,1.3-0.5
		C39.2,5.4,39.5,5,40,4.7l2-2.3h0.3l-0.1,3.5H45v0.5h-2.9v9c0,0.6,0.1,1,0.4,1.3s0.6,0.4,1,0.4s0.6-0.1,0.9-0.3s0.5-0.4,0.8-0.7
		l0.3,0.3c-0.4,0.5-0.8,1-1.3,1.3C43.5,18.3,42.8,18.4,41.9,18.4z"/>
	<path class="st0" d="M28.7,18v-0.2l0.4-0.1c0.4-0.1,0.5-0.3,0.7-0.4c0.2-0.2,0.3-0.5,0.3-0.8c0-0.6,0-1.3,0-1.8c0-0.6,0-1.3,0-1.9
		V6.5h-1.4V6.2l0.5-0.1c0.4,0,0.5-0.2,0.7-0.4s0.3-0.4,0.4-0.8c0.2-0.6,0.4-1.3,0.7-1.7c0.4-0.5,0.7-1,1.2-1.3
		c0.6-0.6,1.3-1.1,2.1-1.3c0.7-0.3,1.4-0.4,2.1-0.4c0.6,0,1.3,0.2,1.8,0.4S39,1.3,39,1.9c0,0.4-0.1,0.8-0.4,1.1S38,3.4,37.4,3.4
		c-0.4,0-0.8-0.1-1.1-0.4s-0.6-0.6-1-1.2L35,1.5c-0.2-0.3-0.4-0.4-0.5-0.4c-0.2,0-0.4,0.1-0.4,0.4c-0.1,0.6-0.2,1.3-0.3,2.1
		c-0.2,1-0.2,1.7-0.2,2.5h2.8v0.5h-2.8v9.9c0,0.6,0.4,1.1,1,1.3l0.6,0.2v0.3h-6.5L28.7,18z"/>
	<path class="st0" d="M21.3,18.4c-1.3,0-2.4-0.3-3.3-0.8s-1.7-1.3-2.1-2.2c-0.5-1-0.7-2.1-0.7-3.4s0.3-2.4,0.8-3.4s1.3-1.7,2.2-2.2
		s2.1-0.8,3.2-0.8c1.2,0,2.2,0.3,3.2,0.8c0.9,0.5,1.7,1.3,2.2,2.1c0.5,1,0.8,2.1,0.8,3.4s-0.3,2.5-0.8,3.4c-0.5,1-1.3,1.7-2.1,2.2
		C23.7,18.2,22.6,18.4,21.3,18.4z M21.3,17.9c0.6,0,1.1-0.2,1.4-0.5c0.4-0.4,0.6-0.9,0.7-1.8c0.2-0.9,0.3-2.1,0.3-3.6
		c0-1.6-0.1-2.8-0.3-3.7S23,6.9,22.7,6.5C22.4,6.2,21.9,6,21.3,6s-1.1,0.2-1.4,0.5c-0.4,0.4-0.6,0.9-0.8,1.8s-0.3,2.1-0.3,3.7
		c0,1.5,0.1,2.8,0.3,3.6c0.2,0.9,0.4,1.4,0.8,1.8C20.3,17.7,20.8,17.9,21.3,17.9z"/>
	<path class="st0" d="M7.3,18.4c-0.9,0-1.9-0.1-2.8-0.4c-1-0.2-1.8-0.5-2.4-0.9l0.2-3.3h0.3l0.8,1.6c0.3,0.4,0.4,0.9,0.7,1.3
		s0.6,0.6,1.1,0.8c0.4,0.2,0.6,0.3,1,0.4C6.5,18,6.8,18,7.3,18c1,0,1.8-0.3,2.4-0.8s0.9-1.3,0.9-2.1s-0.2-1.4-0.6-1.9
		c-0.4-0.4-1.1-0.9-2-1.3l-1-0.4C5.6,10.7,4.4,10,3.6,9.2c-0.8-0.9-1.3-2-1.3-3.4c0-1,0.3-1.9,0.7-2.6C3.6,2.5,4.3,2,5.2,1.6
		s2-0.5,3.2-0.5c0.9,0,1.7,0.1,2.5,0.4s1.5,0.5,2.1,1l-0.2,3h-0.3l-0.9-2c-0.3-0.6-0.5-1-0.9-1.3c-0.3-0.3-0.6-0.4-1-0.5
		C9.6,1.6,9.4,1.6,9.2,1.6S8.8,1.5,8.5,1.5c-0.9,0-1.6,0.3-2.1,0.7c-0.6,0.4-0.9,1.2-0.9,2c0,0.9,0.3,1.5,0.7,2.1s1.1,1,2,1.3
		l1.2,0.5c1.6,0.7,2.8,1.4,3.5,2.2s1.1,1.8,1.1,3c0,1.4-0.5,2.7-1.7,3.6C11,18,9.4,18.4,7.3,18.4z"/>
</g>
</svg>
